<svg width="303" height="150" viewBox="0 0 303 150" fill="none" xmlns="http://www.w3.org/2000/svg">
  <path d="M61.2 109.5L36.5 44.2L59.4 41.5L67.5 91.7H68.4L82.9 41.5L91.9 43.9L70.2 108L61.2 109.5ZM104.359 110.3C103.959 110.3 103.526 110.3 103.059 110.3C102.659 110.3 102.259 110.267 101.859 110.2C99.5927 108.667 97.7594 106.4 96.3594 103.4C95.026 100.333 94.3594 97.1667 94.3594 93.9C94.3594 91.1667 94.9927 88.9 96.2594 87.1C97.526 85.3 99.7927 83.9667 103.059 83.1C106.393 82.1667 111.059 81.7 117.059 81.7C118.526 81.7 120.093 81.7667 121.759 81.9C123.426 81.9667 125.193 82.1333 127.059 82.4L126.859 80.2C126.593 77.4667 125.293 75.3333 122.959 73.8C120.693 72.2667 117.993 71.5 114.859 71.5C113.126 71.5 111.293 71.7667 109.359 72.3C107.493 72.8333 105.626 73.6667 103.759 74.8L99.3594 60.3C101.559 59.3667 104.359 58.5667 107.759 57.9C111.226 57.1667 114.793 56.8 118.459 56.8C123.326 56.8 127.559 57.5 131.159 58.9C134.826 60.3 137.659 62.5 139.659 65.5C141.726 68.4333 142.759 72.3333 142.759 77.2C142.759 77.8 142.726 78.5 142.659 79.3C142.659 80.1 142.626 80.6667 142.559 81L139.759 108.6L129.859 109.5L128.359 95H127.559C125.359 99.6667 122.259 103.4 118.259 106.2C114.326 108.933 109.693 110.3 104.359 110.3ZM111.859 99.1C113.326 98.8333 115.059 98.3667 117.059 97.7C119.126 96.9667 121.093 95.7667 122.959 94.1C124.893 92.3667 126.393 89.8667 127.459 86.6C126.593 86.6 125.726 86.6 124.859 86.6C123.993 86.5333 123.093 86.5 122.159 86.5C120.093 86.5 118.226 86.5333 116.559 86.6C114.893 86.6667 113.159 86.8667 111.359 87.2C111.093 87.8 110.793 88.5333 110.459 89.4C110.126 90.2667 109.959 91.3667 109.959 92.7C109.959 93.8333 110.159 95.0667 110.559 96.4C110.959 97.6667 111.393 98.5667 111.859 99.1ZM160.467 109.5L155.367 59.9L176.767 56.6L174.567 74.2H175.467C178.067 68.5333 181.067 64.0333 184.467 60.7C187.867 57.3667 191.434 55.7 195.167 55.7C196.434 55.7 197.667 55.9 198.867 56.3C200.401 58.1667 201.701 60.7333 202.767 64C203.834 67.2 204.701 70.7667 205.367 74.7C206.034 78.6333 206.534 82.6667 206.867 86.8C207.201 90.8667 207.434 94.7667 207.567 98.5C207.701 102.167 207.767 105.333 207.767 108L189.767 109.5C189.767 103.033 189.701 97.4333 189.567 92.7C189.434 87.9667 189.234 83.6333 188.967 79.7C188.767 75.7 188.467 71.6667 188.067 67.6C186.801 68.0667 185.334 68.9333 183.667 70.2C182.067 71.4667 180.434 73.5333 178.767 76.4C177.101 79.2667 175.534 83.3 174.067 88.5C172.601 93.6333 171.367 100.333 170.367 108.6L160.467 109.5ZM245.283 110.4C240.083 110.4 235.483 109.933 231.483 109C227.483 108.067 224.149 106.567 221.483 104.5C220.883 101.833 220.449 99.4333 220.183 97.3C219.983 95.1 219.883 93.0333 219.883 91.1C219.883 85.1667 220.783 79.7333 222.583 74.8C224.449 69.8667 226.816 65.6333 229.683 62.1C232.549 58.5 235.516 55.8333 238.583 54.1C241.316 55.1667 244.083 56.4667 246.883 58C249.749 59.4667 252.383 61.2 254.783 63.2C257.183 65.2 259.116 67.4667 260.583 70C262.049 72.4667 262.783 75.2 262.783 78.2C262.783 81.3333 262.216 83.9667 261.083 86.1C260.016 88.1667 258.049 89.7333 255.183 90.8C252.316 91.8667 248.183 92.4 242.783 92.4C240.516 92.4 238.316 92.3 236.183 92.1C234.116 91.9 232.316 91.6333 230.783 91.3C229.516 94.4333 228.883 97.7 228.883 101.1C230.416 101.3 232.083 101.467 233.883 101.6C235.683 101.667 237.416 101.7 239.083 101.7C242.216 101.7 245.416 101.467 248.683 101C252.016 100.467 255.349 99.6 258.683 98.4L261.683 108.1C259.016 108.967 256.283 109.567 253.483 109.9C250.683 110.233 247.949 110.4 245.283 110.4ZM236.983 86.7C239.516 86.7 242.049 86.5667 244.583 86.3C247.183 86.0333 249.449 85.7 251.383 85.3C251.583 83.9667 251.683 82.7 251.683 81.5C251.683 79.1 251.349 76.9667 250.683 75.1C250.083 73.1667 249.316 71.4667 248.383 70C244.649 72.4667 241.549 75.0667 239.083 77.8C236.683 80.5333 234.583 83.4667 232.783 86.6C233.449 86.6667 234.149 86.7 234.883 86.7C235.616 86.7 236.316 86.7 236.983 86.7Z" fill="#F09E64">
  </path>
</svg>
